<mxfile host="app.diagrams.net" modified="2022-08-23T09:10:12.043Z" agent="5.0 (X11; Linux x86_64) AppleWebKit/537.36 (KHTML, like Gecko) Chrome/104.0.0.0 Safari/537.36" etag="apUHfu5sWd_-hKm-1xmi" version="20.2.6" type="github">
  <diagram id="--nqma7Hxtt_wLqLNTel" name="Page-1">
    <mxGraphModel dx="1640" dy="922" grid="1" gridSize="10" guides="1" tooltips="1" connect="1" arrows="1" fold="1" page="1" pageScale="1" pageWidth="827" pageHeight="1169" math="0" shadow="0">
      <root>
        <mxCell id="0" />
        <mxCell id="1" parent="0" />
        <mxCell id="2p3ya99PdbGUZq53EWPI-1" value="" style="rounded=0;whiteSpace=wrap;html=1;" parent="1" vertex="1">
          <mxGeometry x="50" y="150" width="360" height="430" as="geometry" />
        </mxCell>
        <mxCell id="2p3ya99PdbGUZq53EWPI-2" value="" style="rounded=1;whiteSpace=wrap;html=1;" parent="1" vertex="1">
          <mxGeometry x="70" y="180" width="120" height="370" as="geometry" />
        </mxCell>
        <mxCell id="2p3ya99PdbGUZq53EWPI-3" value="App" style="text;html=1;strokeColor=none;fillColor=none;align=center;verticalAlign=middle;whiteSpace=wrap;rounded=0;fontStyle=4" parent="1" vertex="1">
          <mxGeometry x="80" y="185" width="40" height="20" as="geometry" />
        </mxCell>
        <mxCell id="2p3ya99PdbGUZq53EWPI-5" value="List of Tokens in DB" style="swimlane;fontStyle=0;childLayout=stackLayout;horizontal=1;startSize=30;horizontalStack=0;resizeParent=1;resizeParentMax=0;resizeLast=0;collapsible=1;marginBottom=0;" parent="1" vertex="1">
          <mxGeometry x="217" y="10" width="173" height="120" as="geometry" />
        </mxCell>
        <mxCell id="2p3ya99PdbGUZq53EWPI-6" value="  User1     ClientID1        N/A" style="text;strokeColor=none;fillColor=none;align=left;verticalAlign=middle;spacingLeft=4;spacingRight=4;overflow=hidden;points=[[0,0.5],[1,0.5]];portConstraint=eastwest;rotatable=0;" parent="2p3ya99PdbGUZq53EWPI-5" vertex="1">
          <mxGeometry y="30" width="173" height="30" as="geometry" />
        </mxCell>
        <mxCell id="2p3ya99PdbGUZq53EWPI-7" value="  User2     ClientID2     Token2" style="text;strokeColor=none;fillColor=none;align=left;verticalAlign=middle;spacingLeft=4;spacingRight=4;overflow=hidden;points=[[0,0.5],[1,0.5]];portConstraint=eastwest;rotatable=0;" parent="2p3ya99PdbGUZq53EWPI-5" vertex="1">
          <mxGeometry y="60" width="173" height="30" as="geometry" />
        </mxCell>
        <mxCell id="2p3ya99PdbGUZq53EWPI-8" value="  User3     ClientID3     Token3" style="text;strokeColor=none;fillColor=none;align=left;verticalAlign=middle;spacingLeft=4;spacingRight=4;overflow=hidden;points=[[0,0.5],[1,0.5]];portConstraint=eastwest;rotatable=0;" parent="2p3ya99PdbGUZq53EWPI-5" vertex="1">
          <mxGeometry y="90" width="173" height="30" as="geometry" />
        </mxCell>
        <mxCell id="2p3ya99PdbGUZq53EWPI-9" style="edgeStyle=orthogonalEdgeStyle;rounded=0;orthogonalLoop=1;jettySize=auto;html=1;exitX=1;exitY=0.5;exitDx=0;exitDy=0;" parent="2p3ya99PdbGUZq53EWPI-5" source="2p3ya99PdbGUZq53EWPI-6" target="2p3ya99PdbGUZq53EWPI-6" edge="1">
          <mxGeometry relative="1" as="geometry" />
        </mxCell>
        <mxCell id="2p3ya99PdbGUZq53EWPI-14" value="VM in Azure subscription" style="text;html=1;strokeColor=none;fillColor=none;align=center;verticalAlign=middle;whiteSpace=wrap;rounded=0;fontStyle=1" parent="1" vertex="1">
          <mxGeometry x="50" y="130" width="160" height="20" as="geometry" />
        </mxCell>
        <mxCell id="2p3ya99PdbGUZq53EWPI-17" value="" style="rounded=0;whiteSpace=wrap;html=1;" parent="1" vertex="1">
          <mxGeometry x="600" y="150" width="200" height="200" as="geometry" />
        </mxCell>
        <mxCell id="2p3ya99PdbGUZq53EWPI-18" value="Azure AD &lt;br&gt;(OAuth 2.0 Authorization Server)" style="text;html=1;strokeColor=none;fillColor=none;align=center;verticalAlign=middle;whiteSpace=wrap;rounded=0;fontStyle=1" parent="1" vertex="1">
          <mxGeometry x="600" y="120" width="200" height="30" as="geometry" />
        </mxCell>
        <mxCell id="2p3ya99PdbGUZq53EWPI-30" style="edgeStyle=orthogonalEdgeStyle;rounded=0;orthogonalLoop=1;jettySize=auto;html=1;exitX=0;exitY=0.75;exitDx=0;exitDy=0;" parent="1" source="2p3ya99PdbGUZq53EWPI-19" edge="1">
          <mxGeometry relative="1" as="geometry">
            <Array as="points">
              <mxPoint x="620" y="290" />
            </Array>
            <mxPoint x="390" y="290" as="targetPoint" />
          </mxGeometry>
        </mxCell>
        <mxCell id="2p3ya99PdbGUZq53EWPI-19" value="" style="rounded=1;whiteSpace=wrap;html=1;" parent="1" vertex="1">
          <mxGeometry x="620" y="180" width="160" height="160" as="geometry" />
        </mxCell>
        <mxCell id="2p3ya99PdbGUZq53EWPI-23" value="Token Endpoint &lt;br&gt;for ClientID1" style="text;html=1;strokeColor=none;fillColor=none;align=center;verticalAlign=middle;whiteSpace=wrap;rounded=0;fontStyle=4" parent="1" vertex="1">
          <mxGeometry x="641.26" y="185" width="121" height="30" as="geometry" />
        </mxCell>
        <mxCell id="2p3ya99PdbGUZq53EWPI-27" value="#3 Token Response" style="text;html=1;strokeColor=none;fillColor=none;align=center;verticalAlign=middle;whiteSpace=wrap;rounded=0;" parent="1" vertex="1">
          <mxGeometry x="430" y="270" width="160" height="20" as="geometry" />
        </mxCell>
        <mxCell id="2p3ya99PdbGUZq53EWPI-25" value="#2 Token Req w/ ClientID1" style="text;html=1;strokeColor=none;fillColor=none;align=center;verticalAlign=middle;whiteSpace=wrap;rounded=0;" parent="1" vertex="1">
          <mxGeometry x="430" y="200" width="160" height="20" as="geometry" />
        </mxCell>
        <mxCell id="2p3ya99PdbGUZq53EWPI-29" value="" style="endArrow=classic;html=1;rounded=0;entryX=0;entryY=0.25;entryDx=0;entryDy=0;" parent="1" target="2p3ya99PdbGUZq53EWPI-19" edge="1">
          <mxGeometry width="50" height="50" relative="1" as="geometry">
            <mxPoint x="390" y="220" as="sourcePoint" />
            <mxPoint x="520" y="330" as="targetPoint" />
          </mxGeometry>
        </mxCell>
        <mxCell id="2p3ya99PdbGUZq53EWPI-33" value="" style="rounded=0;whiteSpace=wrap;html=1;" parent="1" vertex="1">
          <mxGeometry x="600" y="400" width="200" height="180" as="geometry" />
        </mxCell>
        <mxCell id="2p3ya99PdbGUZq53EWPI-34" value="&amp;nbsp;Storage in Azure Subscription" style="text;html=1;strokeColor=none;fillColor=none;align=center;verticalAlign=middle;whiteSpace=wrap;rounded=0;fontStyle=1" parent="1" vertex="1">
          <mxGeometry x="605" y="380" width="190" height="20" as="geometry" />
        </mxCell>
        <mxCell id="2p3ya99PdbGUZq53EWPI-36" value="#4 Store the Token into DB" style="text;html=1;strokeColor=none;fillColor=none;align=center;verticalAlign=middle;whiteSpace=wrap;rounded=0;" parent="1" vertex="1">
          <mxGeometry x="185" y="710" width="95" height="37.5" as="geometry" />
        </mxCell>
        <mxCell id="2p3ya99PdbGUZq53EWPI-37" value="#5 Access to the Resource&lt;br&gt;w/ Token1" style="text;html=1;strokeColor=none;fillColor=none;align=center;verticalAlign=middle;whiteSpace=wrap;rounded=0;" parent="1" vertex="1">
          <mxGeometry x="429.01" y="451" width="160" height="30" as="geometry" />
        </mxCell>
        <mxCell id="2p3ya99PdbGUZq53EWPI-42" value="Tenant A" style="text;html=1;strokeColor=none;fillColor=none;align=center;verticalAlign=middle;whiteSpace=wrap;rounded=0;" parent="1" vertex="1">
          <mxGeometry x="740" y="150" width="60" height="20" as="geometry" />
        </mxCell>
        <mxCell id="2p3ya99PdbGUZq53EWPI-45" value="" style="rounded=0;whiteSpace=wrap;html=1;fillColor=none;strokeColor=#000000;" parent="1" vertex="1">
          <mxGeometry x="255" y="803.5" width="60" height="20" as="geometry" />
        </mxCell>
        <mxCell id="2p3ya99PdbGUZq53EWPI-55" value="#6 Response from the resource in the Azure subscription" style="text;html=1;strokeColor=none;fillColor=none;align=center;verticalAlign=middle;whiteSpace=wrap;rounded=0;" parent="1" vertex="1">
          <mxGeometry x="419.51" y="496" width="179.01" height="30" as="geometry" />
        </mxCell>
        <mxCell id="2p3ya99PdbGUZq53EWPI-68" value="" style="curved=1;endArrow=classic;html=1;rounded=0;exitX=1;exitY=0.5;exitDx=0;exitDy=0;" parent="1" source="2p3ya99PdbGUZq53EWPI-45" edge="1">
          <mxGeometry width="50" height="50" relative="1" as="geometry">
            <mxPoint x="520" y="897.5" as="sourcePoint" />
            <mxPoint x="400" y="767.5" as="targetPoint" />
            <Array as="points">
              <mxPoint x="360" y="777.5" />
            </Array>
          </mxGeometry>
        </mxCell>
        <mxCell id="2p3ya99PdbGUZq53EWPI-69" value="" style="curved=1;endArrow=classic;html=1;rounded=0;" parent="1" edge="1">
          <mxGeometry width="50" height="50" relative="1" as="geometry">
            <mxPoint x="500" y="150" as="sourcePoint" />
            <mxPoint x="429" y="125" as="targetPoint" />
            <Array as="points">
              <mxPoint x="460" y="150" />
            </Array>
          </mxGeometry>
        </mxCell>
        <mxCell id="2p3ya99PdbGUZq53EWPI-70" value="" style="curved=1;endArrow=classic;html=1;rounded=0;" parent="1" edge="1">
          <mxGeometry width="50" height="50" relative="1" as="geometry">
            <mxPoint x="114" y="690" as="sourcePoint" />
            <mxPoint x="159" y="850" as="targetPoint" />
            <Array as="points">
              <mxPoint x="109" y="770" />
              <mxPoint x="119" y="850" />
            </Array>
          </mxGeometry>
        </mxCell>
        <mxCell id="2p3ya99PdbGUZq53EWPI-73" value="" style="rounded=1;whiteSpace=wrap;html=1;" parent="1" vertex="1">
          <mxGeometry x="620" y="420" width="160" height="150" as="geometry" />
        </mxCell>
        <mxCell id="2p3ya99PdbGUZq53EWPI-74" value="Azure Storage Account" style="text;html=1;strokeColor=none;fillColor=none;align=center;verticalAlign=middle;whiteSpace=wrap;rounded=0;fontStyle=4" parent="1" vertex="1">
          <mxGeometry x="620" y="540" width="160" height="20" as="geometry" />
        </mxCell>
        <mxCell id="2p3ya99PdbGUZq53EWPI-62" style="edgeStyle=orthogonalEdgeStyle;rounded=0;orthogonalLoop=1;jettySize=auto;html=1;endArrow=classic;endFill=1;" parent="1" edge="1">
          <mxGeometry relative="1" as="geometry">
            <mxPoint x="190" y="480" as="sourcePoint" />
            <mxPoint x="620" y="480" as="targetPoint" />
          </mxGeometry>
        </mxCell>
        <mxCell id="2p3ya99PdbGUZq53EWPI-79" value="" style="rounded=1;whiteSpace=wrap;html=1;" parent="1" vertex="1">
          <mxGeometry x="655.5" y="220" width="89.5" height="110" as="geometry" />
        </mxCell>
        <mxCell id="2p3ya99PdbGUZq53EWPI-80" value="Token&lt;br&gt;Create Logic" style="text;html=1;strokeColor=none;fillColor=none;align=center;verticalAlign=middle;whiteSpace=wrap;rounded=0;" parent="1" vertex="1">
          <mxGeometry x="657" y="221" width="85.99" height="35" as="geometry" />
        </mxCell>
        <mxCell id="2p3ya99PdbGUZq53EWPI-38" value="" style="rounded=0;whiteSpace=wrap;html=1;" parent="1" vertex="1">
          <mxGeometry x="676.77" y="270" width="50" height="20" as="geometry" />
        </mxCell>
        <mxCell id="2p3ya99PdbGUZq53EWPI-39" value="Token1" style="text;html=1;strokeColor=none;fillColor=none;align=center;verticalAlign=middle;whiteSpace=wrap;rounded=0;" parent="1" vertex="1">
          <mxGeometry x="676.77" y="270" width="50" height="20" as="geometry" />
        </mxCell>
        <mxCell id="2p3ya99PdbGUZq53EWPI-84" value="" style="curved=1;endArrow=classic;html=1;rounded=0;exitX=0;exitY=0.5;exitDx=0;exitDy=0;entryX=-0.002;entryY=0.694;entryDx=0;entryDy=0;entryPerimeter=0;" parent="1" source="2p3ya99PdbGUZq53EWPI-39" target="2p3ya99PdbGUZq53EWPI-19" edge="1">
          <mxGeometry width="50" height="50" relative="1" as="geometry">
            <mxPoint x="660" y="334" as="sourcePoint" />
            <mxPoint x="802" y="339" as="targetPoint" />
            <Array as="points">
              <mxPoint x="660" y="270" />
            </Array>
          </mxGeometry>
        </mxCell>
        <mxCell id="2p3ya99PdbGUZq53EWPI-86" value="" style="curved=1;endArrow=classic;html=1;rounded=0;exitX=0.75;exitY=0;exitDx=0;exitDy=0;" parent="1" edge="1">
          <mxGeometry width="50" height="50" relative="1" as="geometry">
            <mxPoint x="620" y="220" as="sourcePoint" />
            <mxPoint x="680" y="230" as="targetPoint" />
            <Array as="points">
              <mxPoint x="640" y="210" />
            </Array>
          </mxGeometry>
        </mxCell>
        <mxCell id="2p3ya99PdbGUZq53EWPI-98" style="edgeStyle=orthogonalEdgeStyle;rounded=0;orthogonalLoop=1;jettySize=auto;html=1;exitX=1;exitY=0.5;exitDx=0;exitDy=0;endArrow=classic;endFill=1;fillColor=default;entryX=1;entryY=0.5;entryDx=0;entryDy=0;" parent="1" target="2p3ya99PdbGUZq53EWPI-88" edge="1">
          <mxGeometry relative="1" as="geometry">
            <mxPoint x="797" y="784" as="sourcePoint" />
          </mxGeometry>
        </mxCell>
        <mxCell id="2p3ya99PdbGUZq53EWPI-88" value="" style="rounded=0;whiteSpace=wrap;html=1;" parent="1" vertex="1">
          <mxGeometry x="630.25" y="767" width="120" height="35" as="geometry" />
        </mxCell>
        <mxCell id="2p3ya99PdbGUZq53EWPI-89" value="Process for User 1" style="text;html=1;strokeColor=none;fillColor=none;align=center;verticalAlign=middle;whiteSpace=wrap;rounded=0;" parent="1" vertex="1">
          <mxGeometry x="636.75" y="774.5" width="107" height="20" as="geometry" />
        </mxCell>
        <mxCell id="2p3ya99PdbGUZq53EWPI-90" value="" style="rounded=0;whiteSpace=wrap;html=1;" parent="1" vertex="1">
          <mxGeometry x="603" y="675" width="120" height="35" as="geometry" />
        </mxCell>
        <mxCell id="2p3ya99PdbGUZq53EWPI-91" value="Process for User 3" style="text;html=1;strokeColor=none;fillColor=none;align=center;verticalAlign=middle;whiteSpace=wrap;rounded=0;" parent="1" vertex="1">
          <mxGeometry x="607.5" y="682.5" width="107" height="20" as="geometry" />
        </mxCell>
        <mxCell id="2p3ya99PdbGUZq53EWPI-92" value="" style="rounded=0;whiteSpace=wrap;html=1;" parent="1" vertex="1">
          <mxGeometry x="610.5" y="630" width="120" height="35" as="geometry" />
        </mxCell>
        <mxCell id="2p3ya99PdbGUZq53EWPI-93" value="Process for User 2" style="text;html=1;strokeColor=none;fillColor=none;align=center;verticalAlign=middle;whiteSpace=wrap;rounded=0;" parent="1" vertex="1">
          <mxGeometry x="615" y="637.5" width="107" height="20" as="geometry" />
        </mxCell>
        <mxCell id="2p3ya99PdbGUZq53EWPI-96" value="#1 Initiate App &lt;br&gt;by User 1" style="text;html=1;strokeColor=none;fillColor=none;align=center;verticalAlign=middle;whiteSpace=wrap;rounded=0;" parent="1" vertex="1">
          <mxGeometry x="609.5" y="727" width="105" height="40" as="geometry" />
        </mxCell>
        <mxCell id="2p3ya99PdbGUZq53EWPI-97" value="#7 Response from App for User1&amp;nbsp;" style="text;html=1;strokeColor=none;fillColor=none;align=center;verticalAlign=middle;whiteSpace=wrap;rounded=0;" parent="1" vertex="1">
          <mxGeometry x="70" y="617.5" width="105" height="40" as="geometry" />
        </mxCell>
        <mxCell id="2p3ya99PdbGUZq53EWPI-100" value="" style="rounded=0;whiteSpace=wrap;html=1;fillColor=none;strokeColor=#000000;" parent="1" vertex="1">
          <mxGeometry x="207" y="803.5" width="41" height="20" as="geometry" />
        </mxCell>
        <mxCell id="2p3ya99PdbGUZq53EWPI-101" value="" style="curved=1;endArrow=classic;html=1;rounded=0;" parent="1" edge="1">
          <mxGeometry width="50" height="50" relative="1" as="geometry">
            <mxPoint x="400" y="907.5" as="sourcePoint" />
            <mxPoint x="225" y="823.5" as="targetPoint" />
            <Array as="points">
              <mxPoint x="220" y="907.5" />
            </Array>
          </mxGeometry>
        </mxCell>
        <mxCell id="2p3ya99PdbGUZq53EWPI-102" value="" style="curved=1;endArrow=classic;html=1;rounded=0;" parent="1" edge="1">
          <mxGeometry width="50" height="50" relative="1" as="geometry">
            <mxPoint x="726.77" y="826" as="sourcePoint" />
            <mxPoint x="726.77" y="730" as="targetPoint" />
            <Array as="points">
              <mxPoint x="766.77" y="820" />
              <mxPoint x="766.77" y="740" />
            </Array>
          </mxGeometry>
        </mxCell>
        <mxCell id="2p3ya99PdbGUZq53EWPI-104" value="&lt;font style=&quot;font-size: 16px;&quot;&gt;OAuth2.0 Client Credentials Flow&lt;/font&gt;" style="text;html=1;strokeColor=none;fillColor=none;align=center;verticalAlign=middle;whiteSpace=wrap;rounded=0;fontStyle=1;strokeWidth=1;" parent="1" vertex="1">
          <mxGeometry x="280" y="600" width="324.5" height="30" as="geometry" />
        </mxCell>
        <mxCell id="rZW8x_b_ALL_j7njvFHM-3" value="" style="rounded=0;whiteSpace=wrap;html=1;" parent="1" vertex="1">
          <mxGeometry x="676.76" y="300" width="50" height="20" as="geometry" />
        </mxCell>
        <mxCell id="rZW8x_b_ALL_j7njvFHM-4" value="&lt;font style=&quot;font-size: 10px;&quot;&gt;PubKey1&lt;/font&gt;" style="text;html=1;strokeColor=none;fillColor=none;align=center;verticalAlign=middle;whiteSpace=wrap;rounded=0;" parent="1" vertex="1">
          <mxGeometry x="676.76" y="300" width="50" height="20" as="geometry" />
        </mxCell>
        <mxCell id="rZW8x_b_ALL_j7njvFHM-5" value="" style="rounded=0;whiteSpace=wrap;html=1;" parent="1" vertex="1">
          <mxGeometry x="676.77" y="436" width="50" height="20" as="geometry" />
        </mxCell>
        <mxCell id="rZW8x_b_ALL_j7njvFHM-6" value="&lt;font style=&quot;font-size: 10px;&quot;&gt;PubKey1&lt;/font&gt;" style="text;html=1;strokeColor=none;fillColor=none;align=center;verticalAlign=middle;whiteSpace=wrap;rounded=0;" parent="1" vertex="1">
          <mxGeometry x="676.77" y="436" width="50" height="20" as="geometry" />
        </mxCell>
        <mxCell id="rZW8x_b_ALL_j7njvFHM-7" value="" style="curved=1;endArrow=classic;html=1;rounded=0;exitX=0;exitY=0.5;exitDx=0;exitDy=0;entryX=0;entryY=0.5;entryDx=0;entryDy=0;" parent="1" source="rZW8x_b_ALL_j7njvFHM-4" target="rZW8x_b_ALL_j7njvFHM-6" edge="1">
          <mxGeometry width="50" height="50" relative="1" as="geometry">
            <mxPoint x="703.49" y="325" as="sourcePoint" />
            <mxPoint x="520" y="360" as="targetPoint" />
            <Array as="points">
              <mxPoint x="590" y="310" />
              <mxPoint x="590" y="380" />
              <mxPoint x="590" y="450" />
            </Array>
          </mxGeometry>
        </mxCell>
        <mxCell id="rZW8x_b_ALL_j7njvFHM-10" value="" style="curved=1;endArrow=classic;html=1;rounded=0;entryX=0.25;entryY=1;entryDx=0;entryDy=0;" parent="1" target="rZW8x_b_ALL_j7njvFHM-6" edge="1">
          <mxGeometry width="50" height="50" relative="1" as="geometry">
            <mxPoint x="620" y="480" as="sourcePoint" />
            <mxPoint x="650" y="489" as="targetPoint" />
            <Array as="points">
              <mxPoint x="680" y="480" />
            </Array>
          </mxGeometry>
        </mxCell>
        <mxCell id="rZW8x_b_ALL_j7njvFHM-13" value="" style="curved=1;endArrow=classic;html=1;rounded=0;exitX=0.75;exitY=1;exitDx=0;exitDy=0;" parent="1" edge="1" source="rZW8x_b_ALL_j7njvFHM-6">
          <mxGeometry width="50" height="50" relative="1" as="geometry">
            <mxPoint x="664" y="456" as="sourcePoint" />
            <mxPoint x="620" y="526" as="targetPoint" />
            <Array as="points">
              <mxPoint x="720" y="540" />
            </Array>
          </mxGeometry>
        </mxCell>
        <mxCell id="rZW8x_b_ALL_j7njvFHM-14" value="check" style="text;html=1;strokeColor=none;fillColor=none;align=center;verticalAlign=middle;whiteSpace=wrap;rounded=0;" parent="1" vertex="1">
          <mxGeometry x="657" y="470" width="52.5" height="23" as="geometry" />
        </mxCell>
        <mxCell id="cbdDKb6Eu_nVLLMf66wY-2" value="" style="rounded=1;whiteSpace=wrap;html=1;" vertex="1" parent="1">
          <mxGeometry x="250" y="180" width="140" height="160" as="geometry" />
        </mxCell>
        <mxCell id="cbdDKb6Eu_nVLLMf66wY-3" value="Metadata Service" style="text;html=1;strokeColor=none;fillColor=none;align=center;verticalAlign=middle;whiteSpace=wrap;rounded=0;fontStyle=4" vertex="1" parent="1">
          <mxGeometry x="267.5" y="185" width="105" height="20" as="geometry" />
        </mxCell>
        <mxCell id="cbdDKb6Eu_nVLLMf66wY-4" value="https://169.254.169.254/metadata&lt;br&gt;/identity/oauth2/token" style="text;html=1;strokeColor=none;fillColor=none;align=center;verticalAlign=middle;whiteSpace=wrap;rounded=0;fontStyle=4" vertex="1" parent="1">
          <mxGeometry x="224.5" y="330" width="191" height="50" as="geometry" />
        </mxCell>
        <mxCell id="cbdDKb6Eu_nVLLMf66wY-5" value="" style="endArrow=classic;html=1;rounded=0;" edge="1" parent="1">
          <mxGeometry width="50" height="50" relative="1" as="geometry">
            <mxPoint x="620" y="526" as="sourcePoint" />
            <mxPoint x="190.25" y="526" as="targetPoint" />
          </mxGeometry>
        </mxCell>
        <mxCell id="2p3ya99PdbGUZq53EWPI-50" value="" style="rounded=0;whiteSpace=wrap;html=1;" parent="1" vertex="1">
          <mxGeometry x="289.5" y="228.5" width="60" height="20" as="geometry" />
        </mxCell>
        <mxCell id="2p3ya99PdbGUZq53EWPI-51" value="ClientID1" style="text;html=1;strokeColor=none;fillColor=none;align=center;verticalAlign=middle;whiteSpace=wrap;rounded=0;" parent="1" vertex="1">
          <mxGeometry x="290.5" y="228.5" width="60" height="20" as="geometry" />
        </mxCell>
        <mxCell id="2p3ya99PdbGUZq53EWPI-40" value="" style="rounded=0;whiteSpace=wrap;html=1;" parent="1" vertex="1">
          <mxGeometry x="294.5" y="270" width="50" height="20" as="geometry" />
        </mxCell>
        <mxCell id="2p3ya99PdbGUZq53EWPI-41" value="Token1" style="text;html=1;strokeColor=none;fillColor=none;align=center;verticalAlign=middle;whiteSpace=wrap;rounded=0;" parent="1" vertex="1">
          <mxGeometry x="294.5" y="270" width="50" height="20" as="geometry" />
        </mxCell>
      </root>
    </mxGraphModel>
  </diagram>
</mxfile>
